#N canvas 0 25 1280 913 12;
#X obj 156 161 osc~ 0.2;
#X floatatom 197 286 5 0 0 0 - - - 0;
#X obj 282 96 loadbang;
#X obj 301 138 tgl 19 0 empty empty empty 0 -10 0 12 #fcfcfc #000000 #000000 0 1;
#X obj 284 169 metro 10;
#X obj 197 240 snapshot~;
#X obj 341 317 vsl 19 162 -1 1 0 0 empty empty empty 0 -9 0 12 #fcfcfc #000000 #000000 0 1;
#X connect 0 0 5 0;
#X connect 2 0 3 0;
#X connect 3 0 4 0;
#X connect 4 0 5 0;
#X connect 5 0 1 0;
#X connect 5 0 6 0;
