#N canvas 0 27 1366 672 12;
#X obj 479 456 *~;
#X obj 656 447 *~;
#X obj 478 533 *~;
#X obj 655 524 *~;
#X obj 538 621 dac~;
#X obj 518 499 tgl 19 0 empty empty empty 0 -10 0 12 #fcfcfc #000000 #000000 0 1;
#X obj 691 490 tgl 19 0 empty empty empty 0 -10 0 12 #fcfcfc #000000 #000000 0 1;
#X obj 851 255 vsl 19 162 0 1 0 0 empty empty Ammplitude 0 -9 0 12 #0400ff #000000 #000000 0 1;
#X obj 326 351 vsl 19 162 0 1 0 0 empty empty Ammplitude 0 -9 0 12 #0400ff #000000 #000000 0 1;
#X obj 573 134 vsl 19 162 0 20500 0 0 empty empty Frequency 0 -9 0 12 #00faff #000000 #000000 0 1;
#X obj 484 369 hip~;
#X obj 648 371 lop~;
#X msg 179 95 open /home/joselito/Downloads/tracks/teste.wav;
#X msg 349 136 start;
#X msg 418 135 stop;
#X msg 458 180 print;
#X obj 378 225 readsf~ 2 1e+06;
#X msg 820 110 start;
#X msg 889 109 stop;
#X msg 929 154 print;
#X obj 849 199 readsf~ 2 1e+06;
#X msg 650 69 open /home/joselito/Downloads/tracks/teste2.wav;
#X connect 0 0 2 0;
#X connect 1 0 3 0;
#X connect 2 0 4 0;
#X connect 2 0 4 1;
#X connect 3 0 4 0;
#X connect 3 0 4 1;
#X connect 5 0 2 1;
#X connect 6 0 3 1;
#X connect 7 0 1 1;
#X connect 8 0 0 1;
#X connect 9 0 10 1;
#X connect 9 0 11 1;
#X connect 10 0 0 0;
#X connect 11 0 1 0;
#X connect 12 0 16 0;
#X connect 13 0 16 0;
#X connect 14 0 16 0;
#X connect 15 0 16 0;
#X connect 16 0 10 0;
#X connect 17 0 20 0;
#X connect 18 0 20 0;
#X connect 19 0 20 0;
#X connect 20 0 11 0;
#X connect 21 0 20 0;
