#N canvas 1366 27 1280 928 12;
#X msg 331 44 start;
#X msg 382 45 stop;
#X msg 424 44 print;
#X obj 322 75 readsf~ 2 1e+06;
#X obj 321 385 hip~;
#X floatatom 341 349 9 0 0 0 - - - 0;
#X obj 578 406 send~ music;
#X text 431 384 FC do HPF1;
#X msg 322 17 open /home/joselito/git/tcc/datas/audio01.wav;
#X obj 505 624 dac~;
#X obj 506 516 receive~ music;
#X obj 558 624 writesf~;
#X msg 597 583 stop;
#X msg 558 556 open ref_200.wav \, start;
#X connect 0 0 3 0;
#X connect 1 0 3 0;
#X connect 2 0 3 0;
#X connect 3 0 4 0;
#X connect 4 0 6 0;
#X connect 5 0 4 1;
#X connect 8 0 3 0;
#X connect 10 0 9 0;
#X connect 10 0 9 1;
#X connect 10 0 11 0;
#X connect 12 0 11 0;
#X connect 13 0 11 0;
