#N canvas 0 28 1280 1024 12;
#X obj 108 232 osc~ 440;
#X obj 97 442 dac~;
#X floatatom 105 170 5 0 0 0 - - - 0;
#X floatatom 245 269 5 0 0 0 - - - 0;
#X obj 246 304 osc~;
#X obj 245 342 *~ 0.75;
#X obj 245 233 * 2;
#X floatatom 340 268 4 0 0 0 - - - 0;
#X obj 341 303 osc~;
#X obj 340 232 * 4;
#X floatatom 431 273 4 0 0 0 - - - 0;
#X obj 432 308 osc~;
#X obj 431 237 * 8;
#X floatatom 507 274 4 0 0 0 - - - 0;
#X obj 508 309 osc~;
#X obj 507 238 * 16;
#X obj 98 402 *~ 0.1;
#X obj 340 341 *~ 0.3;
#X obj 431 346 *~ 0.35;
#X obj 507 347 *~ 0.5;
#X obj 105 44 loadbang;
#X msg 106 87 440;
#X connect 0 0 16 0;
#X connect 2 0 0 0;
#X connect 2 0 6 0;
#X connect 2 0 9 0;
#X connect 2 0 12 0;
#X connect 2 0 15 0;
#X connect 3 0 4 0;
#X connect 4 0 5 0;
#X connect 5 0 16 0;
#X connect 6 0 3 0;
#X connect 7 0 8 0;
#X connect 8 0 17 0;
#X connect 9 0 7 0;
#X connect 10 0 11 0;
#X connect 11 0 18 0;
#X connect 12 0 10 0;
#X connect 13 0 14 0;
#X connect 14 0 19 0;
#X connect 15 0 13 0;
#X connect 16 0 1 0;
#X connect 16 0 1 1;
#X connect 17 0 16 0;
#X connect 18 0 16 0;
#X connect 19 0 16 0;
#X connect 20 0 21 0;
#X connect 21 0 2 0;
