#N canvas 2 26 1280 912 12;
#X obj 48 386 osc~ 440;
#X obj 98 563 *~ 0.1;
#X obj 124 615 dac~;
#X floatatom 160 538 5 0 0 0 - - - 0;
#X floatatom 47 349 5 0 0 0 - - - 0;
#X obj 46 148 vsl 19 162 50 2000 0 0 empty empty Frequency 0 -9 0 12 #00faff #000000 #000000 0 1;
#X obj 160 170 vsl 19 162 0 1 0 0 empty empty Ammplitude 0 -9 0 12 #0400ff #000000 #000000 0 1;
#X msg 9 86 1000;
#X obj 62 84 random 2000;
#X obj 65 35 bng 30 250 50 0 empty empty Trigger 0 -10 0 12 #ff8300 #000000 #000000;
#X obj 244 381 tgl 30 0 empty empty Mute 0 -10 0 12 #c6ffc7 #000000 #000000 0 1;
#X floatatom 223 125 5 0 0 0 - - - 0;
#X obj 236 455 select 1;
#X obj 336 255 hsl 162 19 0 127 0 0 empty empty empty -2 -10 0 12 #fcfcfc #000000 #000000 0 1;
#X connect 0 0 1 0;
#X connect 1 0 2 0;
#X connect 1 0 2 1;
#X connect 3 0 1 1;
#X connect 4 0 0 0;
#X connect 5 0 4 0;
#X connect 6 0 3 0;
#X connect 6 0 10 0;
#X connect 7 0 5 0;
#X connect 8 0 5 0;
#X connect 9 0 8 0;
#X connect 10 0 12 0;
#X connect 12 0 6 0;
#X connect 12 1 3 0;
