#N canvas 1366 0 1280 955 12;
#X obj 352 211 openpanel;
#X msg 351 284 open \$1;
#X obj 359 328 readsf~;
#X obj 348 139 bng 20 250 50 0 empty empty empty 0 -10 0 12 #fcfcfc #000000 #000000;
#X obj 323 417 dac~;
#X msg 222 300 1;
#X connect 0 0 1 0;
#X connect 1 0 2 0;
#X connect 2 0 4 0;
#X connect 2 0 4 1;
#X connect 3 0 0 0;
#X connect 5 0 2 0;
