#N canvas 1366 0 1280 891 12;
#X obj 479 456 *~;
#X obj 656 447 *~;
#X obj 478 533 *~;
#X obj 655 524 *~;
#X obj 543 641 dac~;
#X obj 518 499 tgl 19 0 empty empty empty 0 -10 0 12 #fcfcfc #000000 #000000 0 1;
#X obj 692 490 tgl 19 0 empty empty empty 0 -10 0 12 #fcfcfc #000000 #000000 0 1;
#X obj 820 249 vsl 19 162 0 1 0 0 empty empty Ammplitude 0 -9 0 12 #0400ff #000000 #000000 0 1;
#X obj 297 237 vsl 19 162 0 1 0 0 empty empty Ammplitude 0 -9 0 12 #0400ff #000000 #000000 0 1;
#X obj 571 150 vsl 19 162 0.1 48000 1 0 empty empty Frequency 0 -9 0 12 #00faff #000000 #000000 0 1;
#X obj 484 369 hip~;
#X msg 277 75 open /home/joselito/Downloads/tracks/teste.wav;
#X msg 412 124 start;
#X msg 416 155 stop;
#X msg 420 187 print;
#X obj 403 231 readsf~ 2 1e+06;
#X msg 694 117 start;
#X msg 694 153 stop;
#X msg 693 191 print;
#X obj 662 235 readsf~ 2 1e+06;
#X msg 693 71 open /home/joselito/Downloads/tracks/teste2.wav;
#X obj 76 282 rfft~;
#X obj 25 333 *~;
#X obj 103 329 *~;
#X obj 23 374 +~;
#X obj 29 421 sqrt~;
#X obj 23 488 tabwrite~ magnitude;
#X obj 123 403 tgl 19 0 empty empty empty 0 -10 0 12 #fcfcfc #000000 #000000 0 1;
#X obj 123 427 metro 250;
#N canvas 0 22 450 300 (subpatch) 0;
#X array magnitude 35 float 4;
#X coords 0 15 34 0 200 140 1;
#X restore 144 722 graph;
#X obj 860 476 rfft~;
#X obj 809 527 *~;
#X obj 887 523 *~;
#X obj 807 568 +~;
#X obj 813 615 sqrt~;
#X obj 907 597 tgl 19 0 empty empty empty 0 -10 0 12 #fcfcfc #000000 #000000 0 1;
#X obj 907 621 metro 250;
#N canvas 0 22 450 300 (subpatch) 0;
#X array magnitude2 30 float 4;
#X coords 0 15 30 0 200 140 1 0 0;
#X restore 809 729 graph;
#X obj 807 682 tabwrite~ magnitude2;
#X obj 648 371 hip~;
#X floatatom 716 270 5 0 0 0 - - - 0;
#X obj 685 311 -;
#X obj -332 416 hsl 70 15 1 1000 0 0 empty empty time -2 -8 1 10 #fcfcfc #000000 #000000 0 1;
#X obj -246 414 hsl 70 15 0 1 0 0 empty empty echo_volume -2 -8 1 10 #fcfcfc #000000 #000000 0 1;
#X obj -251 578 *~ 0.5;
#X obj -251 608 *~;
#X obj -251 672 outlet~;
#X obj 296 579 delwrite~ \$0-delayL 1000;
#X obj -251 550 vd~ \$0-delayL;
#X obj 98 133 rev1~;
#X floatatom 87 92 5 0 100 0 - db - 0;
#X text 44 73 dB after 1 sec, f 8;
#X connect 0 0 2 0;
#X connect 1 0 3 0;
#X connect 2 0 21 0;
#X connect 2 0 4 0;
#X connect 2 0 47 0;
#X connect 2 0 49 0;
#X connect 3 0 4 1;
#X connect 3 0 30 0;
#X connect 5 0 2 1;
#X connect 6 0 3 1;
#X connect 7 0 1 1;
#X connect 8 0 0 1;
#X connect 9 0 10 1;
#X connect 9 0 41 0;
#X connect 10 0 0 0;
#X connect 11 0 15 0;
#X connect 12 0 15 0;
#X connect 13 0 15 0;
#X connect 14 0 15 0;
#X connect 15 0 10 0;
#X connect 16 0 19 0;
#X connect 17 0 19 0;
#X connect 18 0 19 0;
#X connect 19 0 39 0;
#X connect 20 0 19 0;
#X connect 21 0 22 0;
#X connect 21 0 22 1;
#X connect 21 1 23 0;
#X connect 21 1 23 1;
#X connect 22 0 24 0;
#X connect 23 0 24 1;
#X connect 24 0 25 0;
#X connect 25 0 26 0;
#X connect 27 0 28 0;
#X connect 28 0 26 0;
#X connect 30 0 31 0;
#X connect 30 0 31 1;
#X connect 30 1 32 0;
#X connect 30 1 32 1;
#X connect 31 0 33 0;
#X connect 32 0 33 1;
#X connect 33 0 34 0;
#X connect 34 0 38 0;
#X connect 35 0 36 0;
#X connect 36 0 38 0;
#X connect 39 0 1 0;
#X connect 40 0 41 1;
#X connect 41 0 39 1;
#X connect 42 0 48 0;
#X connect 43 0 45 1;
#X connect 44 0 45 0;
#X connect 45 0 46 0;
#X connect 48 0 44 0;
#X connect 49 0 4 0;
#X connect 50 0 49 1;
#X coords 0 0 1 1 85 60 0;
