#N canvas 0 27 1366 672 12;
#X msg 331 44 start;
#X msg 382 45 stop;
#X msg 424 44 print;
#X obj 322 75 readsf~ 2 1e+06;
#X msg 855 38 start;
#X msg 909 39 stop;
#X msg 950 39 print;
#X obj 871 76 readsf~ 2 1e+06;
#X msg 790 13 open /home/joselito/Downloads/tracks/teste2.wav;
#X obj 565 244 hsl 170 20 0.2 24000 1 1 empty empty Fc\ do\ mixer -2 -10 0 12 #00faff #000000 #000000 16900 1;
#X obj 321 385 hip~;
#X obj 869 385 hip~;
#X obj 244 614 dac~;
#X floatatom 912 384 9 0 0 0 - - - 0;
#X floatatom 359 382 9 0 0 0 - - - 0;
#X obj -159 236 rev1~;
#X text -72 198 dB after 1 sec, f 8;
#X obj -366 711 outlet~;
#X obj 578 406 send~ music;
#X obj 245 506 receive~ music;
#X obj -159 283 send~ fx1;
#X obj -158 71 receive~ music;
#X obj 26 74 receive~ music;
#X obj 25 315 vd~ \$0-delay;
#X obj 26 135 delwrite~ \$0-delay 1000;
#X obj -366 711 outlet~;
#X obj 24 362 send~ fx2;
#X obj -155 455 receive~ fx1;
#X obj -148 544 receive~ fx2;
#X obj -155 512 *~;
#X obj -60 581 *~;
#X floatatom -125 512 4 0 0 0 - - - 0;
#X obj -155 626 send~ fx;
#X floatatom -39 549 4 0 0 0 - - - 0;
#X obj -55 513 expr 1 - $f1;
#X obj 100 509 receive~ fx;
#X obj 99 595 *~;
#X obj 563 144 hsl 70 15 0 1 0 0 empty empty Parâmetro\ de\ FX -2 -8 1 10 #fcfcfc #000000 #000000 0 1;
#X obj -143 104 receive fx;
#X obj -143 145 expr 100 * $f1;
#X floatatom -143 204 9 0 0 0 - - - 0;
#X obj 25 175 receive fx;
#X floatatom 25 275 9 0 0 0 - - - 0;
#X obj 25 216 expr 1000 * $f1;
#X text 96 268 time in ms;
#X obj 562 272 send fc;
#X obj 583 497 receive fc;
#X obj 584 597 send fx_volume;
#X obj 117 538 receive fx_volume;
#X text 981 386 FC do HPF2;
#X text 431 384 FC do HPF1;
#X text 581 463 Bloco de automação de FX;
#X text -169 31 Bloco de Reverb FX;
#X text 17 30 Bloco de Delay FX;
#X text 96 479 Bloco mixer de sinais;
#X obj 903 319 receive fc;
#X obj 350 351 receive fc;
#X obj 658 144 tgl 20 0 empty empty empty 0 -10 0 12 #fcfcfc #000000 #000000 0 1;
#X obj 560 183 send fx;
#X obj 658 186 send toogle;
#X obj -131 476 receive toogle;
#X text 688 142 X -> Reverb Blank -> Delay;
#X text -160 425 Bloco de comando de FX;
#X floatatom 712 592 9 0 0 0 - - - 0;
#X obj 583 534 expr (exp(-pow(($f1 - 11000) / 1000 \, 2)) / (exp(-pow(($f1 - 11000) / 1000 \, 2)) + exp(($f1 - 11000) / 2000)))*2;
#X obj 903 347 expr 22050 - $f1;
#X obj 297 614 writesf~;
#X msg 336 573 stop;
#X msg 322 17 open /home/joselito/git/tcc/datas/audio01.wav;
#X msg 296 544 open case3.wav \, start;
#X connect 0 0 3 0;
#X connect 1 0 3 0;
#X connect 2 0 3 0;
#X connect 3 0 10 0;
#X connect 4 0 7 0;
#X connect 5 0 7 0;
#X connect 6 0 7 0;
#X connect 7 0 11 0;
#X connect 8 0 7 0;
#X connect 9 0 45 0;
#X connect 10 0 18 0;
#X connect 11 0 18 0;
#X connect 15 0 20 0;
#X connect 19 0 12 0;
#X connect 19 0 12 1;
#X connect 19 0 66 0;
#X connect 21 0 15 0;
#X connect 22 0 24 0;
#X connect 23 0 26 0;
#X connect 27 0 29 0;
#X connect 28 0 30 0;
#X connect 29 0 32 0;
#X connect 30 0 32 0;
#X connect 34 0 30 1;
#X connect 34 0 33 0;
#X connect 35 0 36 0;
#X connect 36 0 12 0;
#X connect 37 0 58 0;
#X connect 38 0 39 0;
#X connect 39 0 40 0;
#X connect 40 0 15 1;
#X connect 41 0 43 0;
#X connect 42 0 23 0;
#X connect 43 0 42 0;
#X connect 46 0 64 0;
#X connect 48 0 36 1;
#X connect 55 0 65 0;
#X connect 56 0 10 1;
#X connect 56 0 14 0;
#X connect 57 0 59 0;
#X connect 60 0 29 1;
#X connect 60 0 34 0;
#X connect 60 0 31 0;
#X connect 64 0 47 0;
#X connect 64 0 63 0;
#X connect 65 0 11 1;
#X connect 65 0 13 0;
#X connect 67 0 66 0;
#X connect 68 0 3 0;
#X connect 69 0 66 0;
